<?xml version="1.0" encoding="UTF-8" standalone="no"?>
<!DOCTYPE svg PUBLIC "-//W3C//DTD SVG 1.1//EN" "http://www.w3.org/Graphics/SVG/1.1/DTD/svg11.dtd">
<svg width="100%" height="100%" viewBox="0 0 24 24" version="1.1" xmlns="http://www.w3.org/2000/svg" xmlns:xlink="http://www.w3.org/1999/xlink" xml:space="preserve" xmlns:serif="http://www.serif.com/">
    <path d="M18.5,18.5L18.5,20.094C18.5,21.423 17.423,22.5 16.094,22.5L3.906,22.5C2.577,22.5 1.5,21.423 1.5,20.094L1.5,7.906C1.5,6.577 2.577,5.5 3.906,5.5L5.5,5.5L5.5,3.906C5.5,2.577 6.577,1.5 7.906,1.5L20.094,1.5C21.423,1.5 22.5,2.577 22.5,3.906L22.5,16.094C22.5,17.423 21.423,18.5 20.094,18.5L18.5,18.5ZM7.5,5.5L16.094,5.5C17.423,5.5 18.5,6.577 18.5,7.906L18.5,16.5L20.094,16.5C20.318,16.5 20.5,16.318 20.5,16.094L20.5,3.906C20.5,3.682 20.318,3.5 20.094,3.5L7.906,3.5C7.682,3.5 7.5,3.682 7.5,3.906L7.5,5.5ZM16.094,7.5L3.906,7.5C3.682,7.5 3.5,7.682 3.5,7.906L3.5,20.094C3.5,20.318 3.682,20.5 3.906,20.5L16.094,20.5C16.318,20.5 16.5,20.318 16.5,20.094L16.5,7.906C16.5,7.682 16.318,7.5 16.094,7.5Z"/>
</svg>
