<?xml version="1.0" encoding="UTF-8" standalone="no"?>
<!DOCTYPE svg PUBLIC "-//W3C//DTD SVG 1.1//EN" "http://www.w3.org/Graphics/SVG/1.1/DTD/svg11.dtd">
<svg width="100%" height="100%" viewBox="0 0 24 24" version="1.1" xmlns="http://www.w3.org/2000/svg" xmlns:xlink="http://www.w3.org/1999/xlink" xml:space="preserve" xmlns:serif="http://www.serif.com/">
    <path d="M18.75,7.5C18.346,7.06 17.943,6.629 17.657,6.343C16.209,4.895 14.209,4 12,4C7.582,4 4,7.582 4,12C4,16.418 7.582,20 12,20C14.209,20 16.209,19.105 17.657,17.657C18.047,17.267 18.681,17.267 19.071,17.657C19.461,18.047 19.461,18.681 19.071,19.071C17.261,20.881 14.761,22 12,22C6.477,22 2,17.523 2,12C2,6.477 6.477,2 12,2C14.761,2 17.261,3.119 19.071,4.929C19.319,5.177 19.652,5.53 20,5.906L20,4C20,3.448 20.448,3 21,3C21.552,3 22,3.448 22,4L22,8.5C22,8.787 21.878,9.057 21.664,9.248C21.48,9.411 21.246,9.5 21,9.5L16.5,9.5C15.948,9.5 15.5,9.052 15.5,8.5C15.5,7.948 15.948,7.5 16.5,7.5L18.75,7.5Z"/>
</svg>
